<?xml version="1.0" encoding="UTF-8"?>
<!-- Generated by tools/make-icons.py — do not edit by hand. -->
<svg xmlns="http://www.w3.org/2000/svg" width="16" height="16" viewBox="0 0 16 16">
  <path fill="#222222" fill-rule="evenodd" d="M4.80 2.35H11.20A3.45 3.45 0 0 1 14.65 5.80V10.20A3.45 3.45 0 0 1 11.20 13.65H4.80A3.45 3.45 0 0 1 1.35 10.20V5.80A3.45 3.45 0 0 1 4.80 2.35ZM4.80 3.65H11.20A2.15 2.15 0 0 1 13.35 5.80V10.20A2.15 2.15 0 0 1 11.20 12.35H4.80A2.15 2.15 0 0 1 2.65 10.20V5.80A2.15 2.15 0 0 1 4.80 3.65ZM5.24 6.16L9.84 10.76L10.76 9.84L6.16 5.24ZM9.84 5.24L5.24 9.84L6.16 10.76L10.76 6.16Z"/>
</svg>
